<?xml version="1.0" encoding="UTF-8"?>
<svg width="82px" height="82px" viewBox="0 0 82 82" version="1.1" xmlns="http://www.w3.org/2000/svg" xmlns:xlink="http://www.w3.org/1999/xlink">
    <title>Untitled</title>
    <g id="Page-1" stroke="none" stroke-width="1" fill="none" fill-rule="evenodd">
        <g id="icon" fill-rule="nonzero">
            <path d="M82.0004802,75.9424124 C82.0004802,79.2874108 79.2876509,82 75.9428926,82 L6.05734748,82 C2.71258916,82 0,79.2871707 0,75.9424124 L0,6.05758758 C0,2.71114859 2.71258916,0 6.05734748,0 L75.9426525,0 C79.2876509,0 82.0004802,2.71114859 82.0004802,6.05758758 L82.0004802,75.9424124 L82.0004802,75.9424124 Z" id="Shape" fill="#1F4B7F"></path>
            <g id="iconfinder_ic_tab_48px_3669204" transform="translate(11.000000, 16.000000)" fill="#FFFFFF">
                <path d="M56.3636364,0 L5.63636364,0 C2.52227273,0 0,2.53583333 0,5.66666667 L0,45.3333333 C0,48.4641667 2.52227273,51 5.63636364,51 L56.3636364,51 C59.4777273,51 62,48.4641667 62,45.3333333 L62,5.66666667 C62,2.53583333 59.4777273,0 56.3636364,0 Z M56.3636364,45.3333333 L5.63636364,45.3333333 L5.63636364,5.66666667 L33.8181818,5.66666667 L33.8181818,17 L56.3636364,17 L56.3636364,45.3333333 Z" id="Shape"></path>
            </g>
        </g>
    </g>
</svg>